<?xml version="1.0" encoding="UTF-8" standalone="no"?>
<svg
   xmlns:dc="http://purl.org/dc/elements/1.1/"
   xmlns:cc="http://creativecommons.org/ns#"
   xmlns:rdf="http://www.w3.org/1999/02/22-rdf-syntax-ns#"
   xmlns:svg="http://www.w3.org/2000/svg"
   xmlns="http://www.w3.org/2000/svg"
   xmlns:sodipodi="http://sodipodi.sourceforge.net/DTD/sodipodi-0.dtd"
   xmlns:inkscape="http://www.inkscape.org/namespaces/inkscape"
   viewBox="-110 1 511 511.99896"
   version="1.1"
   id="svg4"
   sodipodi:docname="facebook.svg"
   inkscape:version="1.0.1 (3bc2e813f5, 2020-09-07)">
  <metadata
     id="metadata10">
    <rdf:RDF>
      <cc:Work
         rdf:about="">
        <dc:format>image/svg+xml</dc:format>
        <dc:type
           rdf:resource="http://purl.org/dc/dcmitype/StillImage" />
      </cc:Work>
    </rdf:RDF>
  </metadata>
  <defs
     id="defs8" />
  <sodipodi:namedview
     pagecolor="#ffffff"
     bordercolor="#666666"
     borderopacity="1"
     objecttolerance="10"
     gridtolerance="10"
     guidetolerance="10"
     inkscape:pageopacity="0"
     inkscape:pageshadow="2"
     inkscape:window-width="1631"
     inkscape:window-height="995"
     id="namedview6"
     showgrid="false"
     inkscape:zoom="1.6562534"
     inkscape:cx="255.5"
     inkscape:cy="255.99948"
     inkscape:window-x="49"
     inkscape:window-y="27"
     inkscape:window-maximized="1"
     inkscape:current-layer="svg4" />
  <path
     d="m207.363281 126.734375c.699219-.789063 3.96875-3.367187 16.808594-3.367187l42.097656-.015626c13.695313 0 24.832031-11.140624 24.832031-24.835937v-73.578125c0-13.671875-11.121093-24.8125-24.792968-24.835938l-62.53125-.101562c-38.59375 0-71.402344 12.730469-94.878906 36.820312-23.371094 23.980469-35.726563 57.457032-35.726563 96.804688v39.683594h-47.835937c-13.695313 0-24.835938 11.140625-24.835938 24.835937v79.242188c0 13.695312 11.140625 24.835937 24.835938 24.835937h47.835937v184.941406c0 13.695313 11.140625 24.835938 24.835937 24.835938h81.992188c13.695312 0 24.835938-11.140625 24.835938-24.835938v-184.9375h58.472656c13.695312 0 24.832031-11.144531 24.832031-24.832031l.03125-79.246093c0-8.996094-4.894531-17.320313-12.777344-21.722657-3.652343-2.039062-7.902343-3.117187-12.285156-3.117187h-58.273437v-31.351563c0-10.21875 1.375-13.917969 2.527343-15.222656zm0 0"
     id="path2"
     style="fill:#ffffff" />
</svg>
