<?xml version="1.0" encoding="UTF-8" standalone="no"?>
<svg
   xmlns:dc="http://purl.org/dc/elements/1.1/"
   xmlns:cc="http://creativecommons.org/ns#"
   xmlns:rdf="http://www.w3.org/1999/02/22-rdf-syntax-ns#"
   xmlns:svg="http://www.w3.org/2000/svg"
   xmlns="http://www.w3.org/2000/svg"
   xmlns:sodipodi="http://sodipodi.sourceforge.net/DTD/sodipodi-0.dtd"
   xmlns:inkscape="http://www.inkscape.org/namespaces/inkscape"
   version="1.1"
   id="Capa_1"
   x="0px"
   y="0px"
   viewBox="0 0 19 19"
   xml:space="preserve"
   sodipodi:docname="search.svg"
   width="19"
   height="19"
   inkscape:version="1.0.1 (3bc2e813f5, 2020-09-07)"><metadata
   id="metadata49"><rdf:RDF><cc:Work
       rdf:about=""><dc:format>image/svg+xml</dc:format><dc:type
         rdf:resource="http://purl.org/dc/dcmitype/StillImage" /><dc:title></dc:title></cc:Work></rdf:RDF></metadata><defs
   id="defs47" /><sodipodi:namedview
   pagecolor="#ffffff"
   bordercolor="#666666"
   borderopacity="1"
   objecttolerance="10"
   gridtolerance="10"
   guidetolerance="10"
   inkscape:pageopacity="0"
   inkscape:pageshadow="2"
   inkscape:window-width="1631"
   inkscape:window-height="995"
   id="namedview45"
   showgrid="false"
   inkscape:zoom="37.476659"
   inkscape:cx="9.5995593"
   inkscape:cy="9.6930831"
   inkscape:window-x="49"
   inkscape:window-y="27"
   inkscape:window-maximized="1"
   inkscape:current-layer="Capa_1" />
<g
   id="g6"
   transform="scale(0.03710936)"
   style="fill:#ffffff">
	<g
   id="g4"
   style="fill:#ffffff">
		<path
   d="M 225.474,0 C 101.151,0 0,101.151 0,225.474 c 0,124.33 101.151,225.474 225.474,225.474 124.33,0 225.474,-101.144 225.474,-225.474 C 450.948,101.151 349.804,0 225.474,0 Z m 0,409.323 c -101.373,0 -183.848,-82.475 -183.848,-183.848 0,-101.373 82.475,-183.849 183.848,-183.849 101.373,0 183.848,82.475 183.848,183.848 0,101.373 -82.475,183.849 -183.848,183.849 z"
   id="path2"
   style="fill:#ffffff" />
	</g>
</g>
<g
   id="g12"
   transform="scale(0.03710936)"
   inkscape:export-xdpi="95"
   inkscape:export-ydpi="95"
   style="fill:#ffffff">
	<g
   id="g10"
   style="fill:#ffffff">
		<path
   d="M 505.902,476.472 386.574,357.144 c -8.131,-8.131 -21.299,-8.131 -29.43,0 -8.131,8.124 -8.131,21.306 0,29.43 l 119.328,119.328 c 4.065,4.065 9.387,6.098 14.715,6.098 5.321,0 10.649,-2.033 14.715,-6.098 8.131,-8.124 8.131,-21.306 0,-29.43 z"
   id="path8"
   style="fill:#ffffff" />
	</g>
</g>
<g
   id="g14">
</g>
<g
   id="g16">
</g>
<g
   id="g18">
</g>
<g
   id="g20">
</g>
<g
   id="g22">
</g>
<g
   id="g24">
</g>
<g
   id="g26">
</g>
<g
   id="g28">
</g>
<g
   id="g30">
</g>
<g
   id="g32">
</g>
<g
   id="g34">
</g>
<g
   id="g36">
</g>
<g
   id="g38">
</g>
<g
   id="g40">
</g>
<g
   id="g42">
</g>
</svg>
